<?xml version="1.0" standalone="no"?><!DOCTYPE svg PUBLIC "-//W3C//DTD SVG 1.1//EN" "http://www.w3.org/Graphics/SVG/1.1/DTD/svg11.dtd"><svg t="1762317660695" class="icon" viewBox="0 0 1112 1024" version="1.1" xmlns="http://www.w3.org/2000/svg" p-id="9188" xmlns:xlink="http://www.w3.org/1999/xlink" width="217.1875" height="200"><path d="M198.618441 1024h715.443709c109.546612 0 198.618441-85.941926 198.618441-191.576159V191.576159C1112.680591 85.941926 1023.608762 0 914.06215 0H198.618441C89.071829 0 0 85.941926 0 191.576159v640.847682c0 105.634233 89.071829 191.576159 198.618441 191.576159z" fill="#4D4D4D" p-id="9189"></path><path d="M365.155374 481.744269a157.668874 157.668874 0 0 0 159.885889-154.538971A157.668874 157.668874 0 0 0 365.155374 172.535914a157.799287 157.799287 0 0 0-160.407539 154.669384A157.799287 157.799287 0 0 0 365.155374 481.744269z m-70.031584-154.538971A69.640346 69.640346 0 1 1 365.155374 394.367804a68.466633 68.466633 0 0 1-70.031584-67.162506zM198.618441 826.816098a46.166072 46.166072 0 0 0 32.081508-13.041264l172.405502-166.015282L556.340295 795.517066l415.364239-400.497198a42.775344 42.775344 0 0 0 0-61.815589 48.904738 48.904738 0 0 0-64.163016 0l-351.201223 339.072848-153.234844-148.148752-236.568518 228.091696a42.905756 42.905756 0 0 0 0 61.815589 46.166072 46.166072 0 0 0 32.081508 12.780438z" fill="#FFFFFF" p-id="9190"></path></svg>