<?xml version="1.0" standalone="no"?><!DOCTYPE svg PUBLIC "-//W3C//DTD SVG 1.1//EN" "http://www.w3.org/Graphics/SVG/1.1/DTD/svg11.dtd"><svg t="1762317725350" class="icon" viewBox="0 0 1024 1024" version="1.1" xmlns="http://www.w3.org/2000/svg" p-id="14042" xmlns:xlink="http://www.w3.org/1999/xlink" width="200" height="200"><path d="M784.486 750.177h135.633v-203.11c0-75.341-61.034-135.969-136.243-135.969H242.649c-75.182-0.072-136.199 60.79-136.307 135.969v203.11h135.627V614.541h542.517v135.636z m-542.517 67.809H38.525V479.321c0-75.14 60.83-136.034 136.035-136.034h677.335c75.137 0 136.035 60.151 136.035 136.034v338.666H784.486v67.815H241.969v-67.816z m406.889-339.072h135.628v67.817H648.858v-67.817zM309.787 953.618h406.888v67.812H309.787v-67.812z m0-271.261v135.629h406.888V682.357H309.787zM745.271 161.85v0.417a4.958 4.958 0 0 1 3.019 4.631 4.965 4.965 0 0 1-3.019 4.553v0.29L535.675 386.586h-0.246a4.972 4.972 0 0 1-4.594 3.021 4.97 4.97 0 0 1-4.634-3.021h-0.205L316.401 171.698v-0.331a4.968 4.968 0 0 1-3.019-4.594c0-2.068 1.239-3.846 3.019-4.592v-0.414h-9.556H449v-35.043c0-12.617 10.261-22.878 22.879-22.878h115.843c12.62 0 22.838 10.261 22.838 22.878v35.043h144.432-9.682v0.042l-0.039 0.041zM591.445 82.624H467.991c-10.512 0-19.032-8.523-19.032-19.033s8.52-19.033 19.032-19.033h123.372c10.511-0.01 19.04 8.5 19.053 19.012 0.01 10.511-8.502 19.04-19.012 19.054h0.041z m7.572-57.923H460.418c-6.026-0.364-10.73-5.36-10.73-11.399 0-6.038 4.704-11.033 10.73-11.398h138.684a11.419 11.419 0 1 1-0.085 22.797z m0 0" fill="#333333" p-id="14043"></path></svg>